<?xml version="1.0" encoding="UTF-8" standalone="no"?>
<!-- Created with Inkscape (http://www.inkscape.org/) -->

<svg
   xmlns:dc="http://purl.org/dc/elements/1.1/"
   xmlns:cc="http://creativecommons.org/ns#"
   xmlns:rdf="http://www.w3.org/1999/02/22-rdf-syntax-ns#"
   xmlns:svg="http://www.w3.org/2000/svg"
   xmlns="http://www.w3.org/2000/svg"
   xmlns:sodipodi="http://sodipodi.sourceforge.net/DTD/sodipodi-0.dtd"
   xmlns:inkscape="http://www.inkscape.org/namespaces/inkscape"
   width="210mm"
   height="297mm"
   id="svg3001"
   version="1.1"
   inkscape:version="0.48.4 r9939"
   sodipodi:docname="LevelFile.svg">
  <defs
     id="defs3003" />
  <sodipodi:namedview
     id="base"
     pagecolor="#ffffff"
     bordercolor="#666666"
     borderopacity="1.0"
     inkscape:pageopacity="0.0"
     inkscape:pageshadow="2"
     inkscape:zoom="2.8"
     inkscape:cx="248.63863"
     inkscape:cy="939.07008"
     inkscape:document-units="px"
     inkscape:current-layer="layer1"
     showgrid="false"
     inkscape:window-width="1196"
     inkscape:window-height="866"
     inkscape:window-x="634"
     inkscape:window-y="251"
     inkscape:window-maximized="0" />
  <metadata
     id="metadata3006">
    <rdf:RDF>
      <cc:Work
         rdf:about="">
        <dc:format>image/svg+xml</dc:format>
        <dc:type
           rdf:resource="http://purl.org/dc/dcmitype/StillImage" />
        <dc:title />
      </cc:Work>
    </rdf:RDF>
  </metadata>
  <g
     inkscape:label="Laag 1"
     inkscape:groupmode="layer"
     id="layer1">
    <path
       sodipodi:type="arc"
       style="fill:#ff0000;fill-rule:evenodd;stroke:#000000;stroke-width:1px;stroke-linecap:butt;stroke-linejoin:miter;stroke-opacity:1"
       id="path3009"
       sodipodi:cx="5.2232141"
       sodipodi:cy="5.5764647"
       sodipodi:rx="2.6785715"
       sodipodi:ry="2.6785715"
       d="m 7.9017856,5.5764647 a 2.6785715,2.6785715 0 1 1 -5.3571429,0 2.6785715,2.6785715 0 1 1 5.3571429,0 z" />
    <path
       sodipodi:type="arc"
       style="fill:#ff0000;fill-rule:evenodd;stroke:#000000;stroke-width:1px;stroke-linecap:butt;stroke-linejoin:miter;stroke-opacity:1"
       id="path3013"
       sodipodi:cx="19.761108"
       sodipodi:cy="12.094462"
       sodipodi:rx="6.3765879"
       sodipodi:ry="6.3765879"
       d="m 26.137696,12.094462 a 6.3765879,6.3765879 0 1 1 -12.753175,0 6.3765879,6.3765879 0 1 1 12.753175,0 z" />
    <path
       sodipodi:type="arc"
       style="fill:#ff0000;fill-rule:evenodd;stroke:#000000;stroke-width:1px;stroke-linecap:butt;stroke-linejoin:miter;stroke-opacity:1"
       id="path3015"
       sodipodi:cx="25.506351"
       sodipodi:cy="-16.505482"
       sodipodi:rx="9.8489876"
       sodipodi:ry="9.8489876"
       d="m 35.355339,-16.505482 a 9.8489876,9.8489876 0 1 1 -19.697975,0 9.8489876,9.8489876 0 1 1 19.697975,0 z" />
    <path
       sodipodi:type="arc"
       style="fill:#ff0000;fill-rule:evenodd;stroke:#000000;stroke-width:1px;stroke-linecap:butt;stroke-linejoin:miter;stroke-opacity:1"
       id="path3017"
       sodipodi:cx="56.189735"
       sodipodi:cy="33.3708"
       sodipodi:rx="11.111678"
       sodipodi:ry="11.111678"
       d="m 67.301414,33.3708 a 11.111678,11.111678 0 1 1 -22.223357,0 11.111678,11.111678 0 1 1 22.223357,0 z"
       transform="translate(15.714286,4.2857143)" />
    <path
       sodipodi:type="arc"
       style="fill:#ff0000;fill-rule:evenodd;stroke:#000000;stroke-width:1px;stroke-linecap:butt;stroke-linejoin:miter;stroke-opacity:1"
       id="path3019"
       sodipodi:cx="53.348682"
       sodipodi:cy="23.837486"
       sodipodi:rx="4.7350903"
       sodipodi:ry="4.7350903"
       d="m 58.083773,23.837486 a 4.7350903,4.7350903 0 1 1 -9.470181,0 4.7350903,4.7350903 0 1 1 9.470181,0 z" />
    <path
       style="fill:#00a000;stroke:none;stroke-width:1px;stroke-linecap:butt;stroke-linejoin:miter;stroke-opacity:1;fill-opacity:1"
       d="m -18.687822,25.794657 7.576144,30.809652 -23.233509,-0.252538 -10.480332,-26.642773 14.520943,-11.616755 z"
       id="path3021"
       inkscape:connector-curvature="0"
       sodipodi:nodetypes="cccccc" />
    <rect
       style="fill:#00a000;fill-opacity:1;stroke:none"
       id="rect3791"
       width="33.71384"
       height="7.7024131"
       x="4.1668792"
       y="55.215351" />
    <rect
       style="fill:#00a000;fill-opacity:1;stroke:none"
       id="rect3793"
       width="21.465742"
       height="13.258252"
       x="-20.708128"
       y="74.029442" />
    <path
       sodipodi:type="arc"
       style="fill:#00a000;fill-opacity:1;stroke:none"
       id="path3799"
       sodipodi:cx="232.84016"
       sodipodi:cy="65.190605"
       sodipodi:rx="13.889598"
       sodipodi:ry="13.889598"
       d="m 246.72976,65.190605 a 13.889598,13.889598 0 1 1 -27.77919,0 13.889598,13.889598 0 1 1 27.77919,0 z" />
    <path
       transform="translate(14.124122,62.171576)"
       sodipodi:type="arc"
       style="fill:#00a000;fill-opacity:1;stroke:none"
       id="path3799-1"
       sodipodi:cx="232.84016"
       sodipodi:cy="65.190605"
       sodipodi:rx="13.889598"
       sodipodi:ry="13.889598"
       d="m 246.72976,65.190605 a 13.889598,13.889598 0 1 1 -27.77919,0 13.889598,13.889598 0 1 1 27.77919,0 z" />
    <path
       transform="translate(-46.411592,32.171575)"
       sodipodi:type="arc"
       style="fill:#00a000;fill-opacity:1;stroke:none"
       id="path3799-7"
       sodipodi:cx="232.84016"
       sodipodi:cy="65.190605"
       sodipodi:rx="13.889598"
       sodipodi:ry="13.889598"
       d="m 246.72976,65.190605 a 13.889598,13.889598 0 1 1 -27.77919,0 13.889598,13.889598 0 1 1 27.77919,0 z" />
    <path
       transform="translate(74.481265,13.95729)"
       sodipodi:type="arc"
       style="fill:#00a000;fill-opacity:1;stroke:none"
       id="path3799-4"
       sodipodi:cx="232.84016"
       sodipodi:cy="65.190605"
       sodipodi:rx="13.889598"
       sodipodi:ry="13.889598"
       d="m 246.72976,65.190605 a 13.889598,13.889598 0 1 1 -27.77919,0 13.889598,13.889598 0 1 1 27.77919,0 z" />
    <path
       transform="translate(-54.268735,88.421575)"
       sodipodi:type="arc"
       style="fill:#00a000;fill-opacity:1;stroke:none"
       id="path3799-0"
       sodipodi:cx="232.84016"
       sodipodi:cy="65.190605"
       sodipodi:rx="13.889598"
       sodipodi:ry="13.889598"
       d="m 246.72976,65.190605 a 13.889598,13.889598 0 1 1 -27.77919,0 13.889598,13.889598 0 1 1 27.77919,0 z" />
    <path
       transform="translate(-4.983021,118.95729)"
       sodipodi:type="arc"
       style="fill:#00a000;fill-opacity:1;stroke:none"
       id="path3799-9"
       sodipodi:cx="232.84016"
       sodipodi:cy="65.190605"
       sodipodi:rx="13.889598"
       sodipodi:ry="13.889598"
       d="m 246.72976,65.190605 a 13.889598,13.889598 0 1 1 -27.77919,0 13.889598,13.889598 0 1 1 27.77919,0 z" />
    <path
       transform="translate(62.159836,111.45729)"
       sodipodi:type="arc"
       style="fill:#00a000;fill-opacity:1;stroke:none"
       id="path3799-48"
       sodipodi:cx="232.84016"
       sodipodi:cy="65.190605"
       sodipodi:rx="13.889598"
       sodipodi:ry="13.889598"
       d="m 246.72976,65.190605 a 13.889598,13.889598 0 1 1 -27.77919,0 13.889598,13.889598 0 1 1 27.77919,0 z" />
    <path
       transform="matrix(0.71017823,0.45953848,0.45619171,1.3498923,154.57582,-59.958562)"
       sodipodi:type="arc"
       style="fill:#00a000;fill-opacity:1;stroke:none"
       id="path3799-8"
       sodipodi:cx="232.84016"
       sodipodi:cy="65.190605"
       sodipodi:rx="13.889598"
       sodipodi:ry="13.889598"
       d="m 246.72976,65.190605 a 13.889598,13.889598 0 1 1 -27.77919,0 13.889598,13.889598 0 1 1 27.77919,0 z" />
    <path
       transform="translate(52.159837,-40.328424)"
       sodipodi:type="arc"
       style="fill:#00a000;fill-opacity:1;stroke:none"
       id="path3799-2"
       sodipodi:cx="232.84016"
       sodipodi:cy="65.190605"
       sodipodi:rx="13.889598"
       sodipodi:ry="13.889598"
       d="m 246.72976,65.190605 a 13.889598,13.889598 0 1 1 -27.77919,0 13.889598,13.889598 0 1 1 27.77919,0 z" />
    <path
       sodipodi:type="arc"
       style="fill:#00a000;fill-opacity:1;stroke:none"
       id="path2999"
       sodipodi:cx="113.21429"
       sodipodi:cy="137.36218"
       sodipodi:rx="11.785714"
       sodipodi:ry="11.785714"
       d="m 125,137.36218 a 11.785714,11.785714 0 1 1 -23.57143,0 11.785714,11.785714 0 1 1 23.57143,0 z" />
  </g>
</svg>
